# xmcd
#
# Track frame offsets: 
#        150
#        27270
#        39154
#        55066
#        71637
#        89395
#        105310
#        123926
#        138440
#        152960
#        170210
#        187835
#        209887
#        225403
#        240171
#        255609
#        278917
#        294965
#        308741
#        324275
#
# Disc length: 4558 seconds
#
# Revision: 2
# Processed by: cddbd v1.5.2PL0 Copyright (c) Steve Scherf et al.
# Submitted via: ExactAudioCopyFreeDBPlugin 1.0
#
DISCID=0e11cc14
DTITLE=Various Artist - The Best Electronic Album In The World... Eve
DTITLE=r - Disc 3
DYEAR=2019
DGENRE=Electronic
TTITLE0=Yoko Ono - Walking On Thin Ice
TTITLE1=Devo - Whip It
TTITLE2=Martha and The Muffins - Echo Beach
TTITLE3=Furniture - Brilliant Mind
TTITLE4=The Passions - I'm In Love With A German Film Star
TTITLE5=Visage - Mind Of A Toy
TTITLE6=Soft Cell - Torch
TTITLE7=Swansway - Soul Train
TTITLE8=Falco - Rock Me Amadeus (American Edit)
TTITLE9=Sly Fox - Let's Go All The Way
TTITLE10=Animotion - Obsession
TTITLE11=The Human League - Hard Times
TTITLE12=Heaven 17 - Play To Win
TTITLE13=The Fixx - One Thing Leads To Another
TTITLE14=Our Daughter's Wedding - Lawn Chairs
TTITLE15=David Sylvian - Red Guitar
TTITLE16=The Psychedelic Furs - Love My Way
TTITLE17=The Mood - Don't Stop
TTITLE18=New Musik - Living By Numbers
TTITLE19=H2O - Dream To Sleep
EXTD=YEAR: 2019
EXTT0=
EXTT1=
EXTT2=
EXTT3=
EXTT4=
EXTT5=
EXTT6=
EXTT7=
EXTT8=
EXTT9=
EXTT10=
EXTT11=
EXTT12=
EXTT13=
EXTT14=
EXTT15=
EXTT16=
EXTT17=
EXTT18=
EXTT19=
PLAYORDER=
